<svg width="19" height="13" viewBox="0 0 19 13" fill="none" xmlns="http://www.w3.org/2000/svg">
<path fill-rule="evenodd" clip-rule="evenodd" d="M17.0619 0.953369H16.0219C15.4475 0.953369 14.9819 1.41873 14.9819 1.99278V11.001C14.9819 11.575 15.4475 12.0404 16.0219 12.0404H17.0619C17.6363 12.0404 18.1019 11.575 18.1019 11.001V1.99278C18.1019 1.41873 17.6363 0.953369 17.0619 0.953369ZM11.1685 3.37866H12.2085C12.7829 3.37866 13.2485 3.84402 13.2485 4.41807V11.001C13.2485 11.575 12.7829 12.0404 12.2085 12.0404H11.1685C10.5942 12.0404 10.1285 11.575 10.1285 11.001V4.41807C10.1285 3.84402 10.5942 3.37866 11.1685 3.37866ZM7.35521 5.80394H6.31521C5.74083 5.80394 5.27521 6.2693 5.27521 6.84335V11.001C5.27521 11.575 5.74083 12.0404 6.31521 12.0404H7.35521C7.92958 12.0404 8.39521 11.575 8.39521 11.001V6.84335C8.39521 6.2693 7.92958 5.80394 7.35521 5.80394ZM2.50187 7.88276H1.46187C0.887499 7.88276 0.421875 8.34812 0.421875 8.92217V11.001C0.421875 11.575 0.887499 12.0404 1.46187 12.0404H2.50187C3.07625 12.0404 3.54187 11.575 3.54187 11.001V8.92217C3.54187 8.34812 3.07625 7.88276 2.50187 7.88276Z" fill="black"/>
</svg>
