<svg width="19" height="13" viewBox="0 0 19 13" fill="none" xmlns="http://www.w3.org/2000/svg">
<path fill-rule="evenodd" clip-rule="evenodd" d="M17.5958 0.953369H16.5558C15.9814 0.953369 15.5158 1.41873 15.5158 1.99278V11.001C15.5158 11.575 15.9814 12.0404 16.5558 12.0404H17.5958C18.1702 12.0404 18.6358 11.575 18.6358 11.001V1.99278C18.6358 1.41873 18.1702 0.953369 17.5958 0.953369ZM11.7025 3.37866H12.7425C13.3169 3.37866 13.7825 3.84402 13.7825 4.41807V11.001C13.7825 11.575 13.3169 12.0404 12.7425 12.0404H11.7025C11.1281 12.0404 10.6625 11.575 10.6625 11.001V4.41807C10.6625 3.84402 11.1281 3.37866 11.7025 3.37866ZM7.88914 5.80394H6.84914C6.27477 5.80394 5.80914 6.2693 5.80914 6.84335V11.001C5.80914 11.575 6.27477 12.0404 6.84914 12.0404H7.88914C8.46352 12.0404 8.92914 11.575 8.92914 11.001V6.84335C8.92914 6.2693 8.46352 5.80394 7.88914 5.80394ZM3.03581 7.88276H1.99581C1.42143 7.88276 0.955811 8.34812 0.955811 8.92217V11.001C0.955811 11.575 1.42143 12.0404 1.99581 12.0404H3.03581C3.61019 12.0404 4.07581 11.575 4.07581 11.001V8.92217C4.07581 8.34812 3.61019 7.88276 3.03581 7.88276Z" fill="black"/>
</svg>
