<svg width="19" height="13" viewBox="0 0 19 13" fill="none" xmlns="http://www.w3.org/2000/svg">
<path fill-rule="evenodd" clip-rule="evenodd" d="M17.0316 0.953369H15.9916C15.4172 0.953369 14.9516 1.41873 14.9516 1.99278V11.001C14.9516 11.575 15.4172 12.0404 15.9916 12.0404H17.0316C17.606 12.0404 18.0716 11.575 18.0716 11.001V1.99278C18.0716 1.41873 17.606 0.953369 17.0316 0.953369ZM11.1383 3.37866H12.1783C12.7526 3.37866 13.2183 3.84402 13.2183 4.41807V11.001C13.2183 11.575 12.7526 12.0404 12.1783 12.0404H11.1383C10.5639 12.0404 10.0983 11.575 10.0983 11.001V4.41807C10.0983 3.84402 10.5639 3.37866 11.1383 3.37866ZM7.32493 5.80394H6.28493C5.71056 5.80394 5.24493 6.2693 5.24493 6.84335V11.001C5.24493 11.575 5.71056 12.0404 6.28493 12.0404H7.32493C7.89931 12.0404 8.36493 11.575 8.36493 11.001V6.84335C8.36493 6.2693 7.89931 5.80394 7.32493 5.80394ZM2.4716 7.88276H1.4316C0.857225 7.88276 0.391602 8.34812 0.391602 8.92217V11.001C0.391602 11.575 0.857225 12.0404 1.4316 12.0404H2.4716C3.04598 12.0404 3.5116 11.575 3.5116 11.001V8.92217C3.5116 8.34812 3.04598 7.88276 2.4716 7.88276Z" fill="black"/>
</svg>
