<svg width="19" height="13" viewBox="0 0 19 13" fill="none" xmlns="http://www.w3.org/2000/svg">
<path fill-rule="evenodd" clip-rule="evenodd" d="M17.12 0.953369H16.08C15.5056 0.953369 15.04 1.41873 15.04 1.99278V11.001C15.04 11.575 15.5056 12.0404 16.08 12.0404H17.12C17.6944 12.0404 18.16 11.575 18.16 11.001V1.99278C18.16 1.41873 17.6944 0.953369 17.12 0.953369ZM11.2266 3.37866H12.2666C12.841 3.37866 13.3066 3.84402 13.3066 4.41807V11.001C13.3066 11.575 12.841 12.0404 12.2666 12.0404H11.2266C10.6523 12.0404 10.1866 11.575 10.1866 11.001V4.41807C10.1866 3.84402 10.6523 3.37866 11.2266 3.37866ZM7.41331 5.80394H6.37331C5.79894 5.80394 5.33331 6.2693 5.33331 6.84335V11.001C5.33331 11.575 5.79894 12.0404 6.37331 12.0404H7.41331C7.98769 12.0404 8.45331 11.575 8.45331 11.001V6.84335C8.45331 6.2693 7.98769 5.80394 7.41331 5.80394ZM2.55998 7.88276H1.51998C0.945604 7.88276 0.47998 8.34812 0.47998 8.92217V11.001C0.47998 11.575 0.945604 12.0404 1.51998 12.0404H2.55998C3.13436 12.0404 3.59998 11.575 3.59998 11.001V8.92217C3.59998 8.34812 3.13436 7.88276 2.55998 7.88276Z" fill="black"/>
</svg>
