<svg width="19" height="13" viewBox="0 0 19 13" fill="none" xmlns="http://www.w3.org/2000/svg">
<path fill-rule="evenodd" clip-rule="evenodd" d="M17.5668 0.953369H16.5268C15.9524 0.953369 15.4868 1.41873 15.4868 1.99278V11.001C15.4868 11.575 15.9524 12.0404 16.5268 12.0404H17.5668C18.1411 12.0404 18.6068 11.575 18.6068 11.001V1.99278C18.6068 1.41873 18.1411 0.953369 17.5668 0.953369ZM11.6734 3.37866H12.7134C13.2878 3.37866 13.7534 3.84402 13.7534 4.41807V11.001C13.7534 11.575 13.2878 12.0404 12.7134 12.0404H11.6734C11.099 12.0404 10.6334 11.575 10.6334 11.001V4.41807C10.6334 3.84402 11.099 3.37866 11.6734 3.37866ZM7.86009 5.80394H6.82009C6.24571 5.80394 5.78009 6.2693 5.78009 6.84335V11.001C5.78009 11.575 6.24571 12.0404 6.82009 12.0404H7.86009C8.43447 12.0404 8.90009 11.575 8.90009 11.001V6.84335C8.90009 6.2693 8.43447 5.80394 7.86009 5.80394ZM3.00676 7.88276H1.96676C1.39238 7.88276 0.926758 8.34812 0.926758 8.92217V11.001C0.926758 11.575 1.39238 12.0404 1.96676 12.0404H3.00676C3.58113 12.0404 4.04676 11.575 4.04676 11.001V8.92217C4.04676 8.34812 3.58113 7.88276 3.00676 7.88276Z" fill="black"/>
</svg>
