<svg width="19" height="13" viewBox="0 0 19 13" fill="none" xmlns="http://www.w3.org/2000/svg">
<path fill-rule="evenodd" clip-rule="evenodd" d="M17.537 0.953369H16.497C15.9226 0.953369 15.457 1.41873 15.457 1.99278V11.001C15.457 11.575 15.9226 12.0404 16.497 12.0404H17.537C18.1113 12.0404 18.577 11.575 18.577 11.001V1.99278C18.577 1.41873 18.1113 0.953369 17.537 0.953369ZM11.6436 3.37866H12.6836C13.258 3.37866 13.7236 3.84402 13.7236 4.41807V11.001C13.7236 11.575 13.258 12.0404 12.6836 12.0404H11.6436C11.0693 12.0404 10.6036 11.575 10.6036 11.001V4.41807C10.6036 3.84402 11.0693 3.37866 11.6436 3.37866ZM7.83031 5.80394H6.79031C6.21593 5.80394 5.75031 6.2693 5.75031 6.84335V11.001C5.75031 11.575 6.21593 12.0404 6.79031 12.0404H7.83031C8.40468 12.0404 8.87031 11.575 8.87031 11.001V6.84335C8.87031 6.2693 8.40468 5.80394 7.83031 5.80394ZM2.97697 7.88276H1.93697C1.3626 7.88276 0.896973 8.34812 0.896973 8.92217V11.001C0.896973 11.575 1.3626 12.0404 1.93697 12.0404H2.97697C3.55135 12.0404 4.01697 11.575 4.01697 11.001V8.92217C4.01697 8.34812 3.55135 7.88276 2.97697 7.88276Z" fill="black"/>
</svg>
