<svg width="24" height="18" viewBox="0 0 24 18" fill="none" xmlns="http://www.w3.org/2000/svg">
<path fill-rule="evenodd" clip-rule="evenodd" d="M6.30112 1.98695C6.2079 2.07793 6.10779 2.17763 5.97409 2.31216C5.97409 2.31216 3.7716 4.51681 3.76424 4.52318C3.69591 4.58802 3.63905 4.64346 3.5801 4.70208C3.55301 4.72916 3.52891 4.75299 3.47754 4.80355C3.43336 4.84701 3.41291 4.8672 3.38745 4.89253L1.39603 6.88681C1.35329 6.93116 1.31662 6.9685 1.26946 7.01589L1.21577 7.06987C1.15497 7.13081 1.10687 7.18039 1.03888 7.25132C0.882932 7.40526 0.724796 7.57933 0.575891 7.76189C0.437535 7.90946 0.325837 8.08005 0.245866 8.26605L0.224736 8.32232C0.0806871 8.7684 0.0806871 9.24852 0.224736 9.6946L0.246795 9.75303C0.327373 9.93857 0.439665 10.1085 0.578545 10.2554C0.726822 10.4376 0.884842 10.6117 1.05192 10.7769C1.08706 10.8148 1.13886 10.8677 1.20803 10.9369C1.25581 10.9847 1.27636 11.0053 1.30197 11.0312C1.33506 11.0646 1.36366 11.0937 1.39021 11.1213L3.38687 13.1222C3.4858 13.2212 3.53008 13.2651 3.60931 13.3425C3.67444 13.4069 3.71299 13.4444 3.78435 13.5102L5.97607 15.7058C6.14034 15.8701 6.21403 15.9435 6.30692 16.0348C6.42767 16.1556 6.50726 16.2337 6.63159 16.3552C6.67842 16.4046 6.69598 16.4228 6.71999 16.4452C7.00058 16.7272 7.34282 16.9765 7.71758 17.1678C8.09271 17.3568 8.49043 17.4881 8.90091 17.559C9.28549 17.6223 9.66927 17.6562 10.054 17.661C10.2171 17.6646 10.3808 17.6668 10.5425 17.6675L10.9276 17.6675H18.0924C18.2411 17.6675 18.3885 17.6654 18.5929 17.6609C18.9753 17.6562 19.3629 17.6222 19.7463 17.5592C20.165 17.4869 20.5655 17.3544 20.94 17.1651C21.3195 16.9731 21.6658 16.722 21.9661 16.4212C22.265 16.1209 22.515 15.7765 22.7076 15.3999C22.8983 15.0203 23.0303 14.6189 23.1013 14.2047C23.1648 13.8165 23.1986 13.429 23.2032 13.0407C23.2061 12.9453 23.2075 12.8613 23.2097 12.6742L23.2112 12.5545L23.2113 11.9644V5.4311L23.2102 5.32774C23.2089 5.21248 23.2083 5.16214 23.2072 5.09754C23.2061 5.03697 23.2049 4.9814 23.2033 4.92787C23.199 4.5545 23.1655 4.17048 23.1034 3.79059C23.032 3.37474 22.9012 2.97677 22.7143 2.60437C22.5208 2.22601 22.2724 1.88421 21.976 1.58678C21.6794 1.288 21.3357 1.038 20.959 0.847231C20.5873 0.659166 20.19 0.527484 19.7798 0.456391C19.3934 0.393529 19.0096 0.359993 18.6248 0.354954C18.4506 0.350734 18.2899 0.348482 18.1353 0.348482C17.9793 0.346882 17.8503 0.346558 17.5606 0.346558H11.1178C10.8302 0.346558 10.7003 0.346884 10.5373 0.348515C10.3895 0.348482 10.2293 0.350719 10.0455 0.355079C9.66814 0.360036 9.28493 0.393578 8.90577 0.455303C8.48875 0.527602 8.09107 0.659141 7.71908 0.846752C7.34153 1.03916 6.9991 1.28873 6.70221 1.58735C6.68845 1.60089 6.67838 1.61149 6.59432 1.70124C6.49004 1.80015 6.39414 1.89358 6.30112 1.98695ZM6.47703 14.1919L4.29652 12.021C4.29652 12.021 4.25303 11.9817 4.2485 11.9779C4.21486 11.9459 4.18592 11.9178 4.11363 11.8468C4.06144 11.7964 4.02084 11.7564 3.92842 11.6645L1.97087 9.71496C1.94791 9.69118 1.91593 9.65875 1.87965 9.62237C1.85271 9.59534 1.83094 9.57366 1.78326 9.52626C1.72332 9.46666 1.68028 9.42297 1.64015 9.38062C1.48687 9.22943 1.35711 9.0867 1.23572 8.93707L1.19412 8.89069C1.162 8.85826 1.1351 8.82118 1.11433 8.78075C1.06693 8.61468 1.06705 8.43872 1.11469 8.27269C1.13549 8.23154 1.16254 8.19374 1.19492 8.16065L1.23316 8.11782C1.35522 7.96787 1.48554 7.82475 1.62351 7.68913C1.69744 7.6128 1.74017 7.56903 1.77248 7.53647L1.84572 7.46375C1.89708 7.41246 1.93816 7.37088 1.97759 7.33005L3.92772 5.38933C3.94912 5.36817 3.96725 5.35038 4.0185 5.30027C4.06281 5.25694 4.08846 5.23173 4.11689 5.20347C4.16087 5.16001 4.20413 5.11797 4.24662 5.07748C4.25596 5.06972 4.26683 5.0597 4.29778 5.03117L6.47637 2.86252C6.60498 2.73391 6.69955 2.64031 6.79213 2.55043C6.88115 2.4617 6.96708 2.37851 7.05794 2.29283C7.07808 2.27415 7.09012 2.26163 7.14574 2.20297L7.1897 2.1568C7.39191 1.9547 7.62025 1.78931 7.87041 1.66261C8.12302 1.536 8.3956 1.44639 8.67695 1.39789C8.98217 1.34854 9.29717 1.32114 9.61291 1.31699C9.79115 1.31282 9.93919 1.31077 10.08 1.31077C10.2412 1.3092 10.3662 1.30889 10.6451 1.30889H16.9871C17.268 1.30889 17.3922 1.3092 17.5465 1.31074C17.6939 1.31077 17.8423 1.31284 18.0112 1.31687C18.3345 1.32111 18.6501 1.34852 18.9624 1.39899C19.2364 1.44622 19.5082 1.53571 19.7622 1.66344C20.0122 1.7893 20.2406 1.95438 20.4382 2.15228C20.6384 2.35182 20.8053 2.58011 20.9338 2.82983C21.0597 3.07925 21.1494 3.35048 21.1978 3.63036C21.2479 3.93486 21.2753 4.24781 21.279 4.56148C21.2807 4.61947 21.2818 4.66865 21.2827 4.72292C21.2838 4.78251 21.2844 4.82999 21.2855 4.94005L21.2866 5.03518L21.2866 5.59038V11.9826L21.2851 12.0987C21.283 12.2743 21.2818 12.3515 21.279 12.446C21.2749 12.7741 21.2472 13.0904 21.1957 13.4034C21.1477 13.6815 21.0569 13.9558 20.9273 14.2124C20.7994 14.4609 20.6308 14.6917 20.4295 14.8926C20.2291 15.0921 19.9975 15.259 19.7439 15.3865C19.4872 15.5155 19.2124 15.6058 18.9288 15.6545C18.6191 15.7051 18.3008 15.7329 17.9817 15.7368C17.7829 15.741 17.646 15.743 17.5105 15.743H10.0813C9.9324 15.7424 9.77885 15.7403 9.61971 15.7369C9.29851 15.7328 8.984 15.7053 8.67291 15.6544C8.39652 15.6069 8.12398 15.5174 7.86902 15.3898C7.62146 15.2642 7.39261 15.0986 7.19395 14.9005C7.18206 14.889 7.16557 14.872 7.1447 14.8501L7.1422 14.8475L7.14219 14.8475C7.09242 14.7953 7.0812 14.7835 7.06944 14.7723L7.05524 14.7591C6.98305 14.6917 6.91251 14.6229 6.79841 14.5095C6.70655 14.4198 6.63576 14.3497 6.47703 14.1919ZM13.2655 8.52593L10.7017 11.0901L11.5064 11.8939L14.07 9.32998L16.6352 11.8939L17.4377 11.0906L14.8734 8.5264L17.4377 5.96177L17.366 5.89021C17.4115 5.81612 17.4369 5.72957 17.4369 5.63885C17.4369 5.44435 17.3198 5.26901 17.1401 5.19458C16.9956 5.13476 16.8337 5.1496 16.7042 5.22915L16.633 5.15796L14.0691 7.72217L11.5049 5.15796L11.4345 5.2285C11.3596 5.18275 11.273 5.15796 11.1837 5.15796C11.0556 5.15796 10.9329 5.20898 10.8426 5.29972C10.7051 5.43709 10.6639 5.6437 10.7384 5.8232C10.7483 5.84717 10.76 5.87002 10.7734 5.89164L10.7017 5.96348L13.2655 8.52593ZM11.3668 11.9305C11.1872 11.8561 10.9805 11.8972 10.843 12.0348V12.0337C10.7526 12.1239 10.7017 12.2464 10.7017 12.3742C10.7017 12.502 10.7526 12.6246 10.843 12.7148C10.9805 12.8523 11.1872 12.8935 11.3668 12.819C11.5464 12.7446 11.6635 12.5693 11.6635 12.3748C11.6635 12.1803 11.5464 12.0049 11.3668 11.9305ZM17.2961 12.0356C17.4336 12.173 17.4748 12.3796 17.4003 12.5591C17.3259 12.7386 17.1506 12.8557 16.9561 12.8557C16.7616 12.8557 16.5862 12.7386 16.5118 12.5591C16.4374 12.3796 16.4785 12.173 16.616 12.0356C16.7061 11.9451 16.8286 11.8941 16.9564 11.8939C17.0842 11.8937 17.2068 11.9443 17.2971 12.0346L17.2961 12.0356Z" fill="black"/>
</svg>
