<svg width="24" height="18" viewBox="0 0 24 18" fill="none" xmlns="http://www.w3.org/2000/svg">
<path fill-rule="evenodd" clip-rule="evenodd" d="M6.30015 2.09962C6.20693 2.1906 6.10681 2.2903 5.97312 2.42483C5.97312 2.42483 3.77062 4.62949 3.76326 4.63585C3.69493 4.70069 3.63807 4.75613 3.57912 4.81475C3.55204 4.84184 3.52794 4.86566 3.47656 4.91622C3.43238 4.95968 3.41193 4.97987 3.38647 5.0052L1.39506 6.99948C1.35232 7.04383 1.31564 7.08118 1.26849 7.12856L1.2148 7.18254C1.154 7.24348 1.10589 7.29306 1.03791 7.36399C0.881955 7.51793 0.723819 7.692 0.574914 7.87456C0.436558 8.02213 0.32486 8.19272 0.244889 8.37872L0.223759 8.43499C0.0797105 8.88107 0.0797105 9.3612 0.223759 9.80727L0.245819 9.8657C0.326396 10.0512 0.438688 10.2212 0.577569 10.368C0.725845 10.5503 0.883866 10.7244 1.05094 10.8896C1.08609 10.9275 1.13788 10.9804 1.20705 11.0496C1.25483 11.0974 1.27539 11.118 1.301 11.1438C1.33409 11.1772 1.36268 11.2064 1.38923 11.2339L3.3859 13.2349C3.48483 13.3338 3.52911 13.3778 3.60834 13.4551C3.67346 13.5195 3.71201 13.557 3.78338 13.6229L5.97509 15.8185C6.13936 15.9828 6.21306 16.0562 6.30595 16.1475C6.42669 16.2683 6.50628 16.3464 6.63061 16.4679C6.67745 16.5173 6.695 16.5355 6.71901 16.5579C6.9996 16.8399 7.34184 17.0892 7.7166 17.2805C8.09173 17.4694 8.48945 17.6007 8.89993 17.6717C9.28452 17.735 9.66829 17.7688 10.053 17.7737C10.2161 17.7773 10.3798 17.7795 10.5415 17.7801L10.9267 17.7802H18.0914C18.2401 17.7802 18.3875 17.778 18.5919 17.7736C18.9743 17.7689 19.3619 17.7349 19.7453 17.6719C20.164 17.5996 20.5645 17.467 20.939 17.2778C21.3185 17.0858 21.6648 16.8347 21.9651 16.5338C22.2641 16.2336 22.5141 15.8892 22.7066 15.5126C22.8973 15.1329 23.0293 14.7316 23.1003 14.3174C23.1638 13.9291 23.1976 13.5417 23.2022 13.1533C23.2051 13.058 23.2065 12.974 23.2087 12.7869L23.2102 12.6672L23.2103 12.0771V5.54377L23.2092 5.44042C23.2079 5.32515 23.2073 5.27481 23.2062 5.21021C23.2052 5.14964 23.2039 5.09407 23.2023 5.04054C23.198 4.66717 23.1645 4.28315 23.1025 3.90326C23.031 3.48741 22.9002 3.08944 22.7133 2.71705C22.5198 2.33868 22.2715 1.99688 21.975 1.69945C21.6784 1.40067 21.3347 1.15067 20.958 0.959902C20.5863 0.771837 20.189 0.640155 19.7788 0.569062C19.3924 0.506199 19.0086 0.472664 18.6238 0.467625C18.4496 0.463405 18.2889 0.461153 18.1344 0.461153C17.9784 0.459553 17.8493 0.459229 17.5596 0.459229H11.1168C10.8293 0.459229 10.6994 0.459555 10.5363 0.461185C10.3885 0.461153 10.2283 0.46339 10.0446 0.46775C9.66717 0.472707 9.28396 0.506248 8.90479 0.567974C8.48777 0.640273 8.09009 0.771812 7.71811 0.959423C7.34055 1.15183 6.99813 1.4014 6.70123 1.70002C6.68747 1.71356 6.6774 1.72416 6.59334 1.81391C6.48906 1.91283 6.39316 2.00625 6.30015 2.09962ZM6.47613 14.3046L4.29562 12.1337C4.29562 12.1337 4.25213 12.0943 4.2476 12.0906C4.21396 12.0586 4.18502 12.0305 4.11272 11.9594C4.06054 11.9091 4.01994 11.8691 3.92751 11.7772L1.96996 9.82763C1.947 9.80385 1.91503 9.77142 1.87875 9.73504C1.8518 9.70801 1.83004 9.68633 1.78236 9.63893C1.72241 9.57933 1.67938 9.53564 1.63925 9.49329C1.48597 9.3421 1.3562 9.19937 1.23481 9.04974L1.19322 9.00336C1.1611 8.97093 1.1342 8.93385 1.11342 8.89342C1.06602 8.72735 1.06615 8.55139 1.11379 8.38536C1.13459 8.34421 1.16163 8.30641 1.19401 8.27332L1.23226 8.23049C1.35432 8.08054 1.48464 7.93742 1.62261 7.8018C1.69654 7.72547 1.73927 7.6817 1.77158 7.64914L1.84482 7.57642C1.89618 7.52513 1.93726 7.48355 1.97669 7.44272L3.92682 5.502C3.94822 5.48084 3.96635 5.46306 4.0176 5.41294C4.06191 5.36961 4.08756 5.3444 4.11598 5.31614C4.15997 5.27268 4.20323 5.23064 4.24572 5.19015C4.25505 5.1824 4.26591 5.17239 4.29679 5.14392L4.29686 5.14386L4.29688 5.14384L6.47547 2.97519C6.60407 2.84658 6.69865 2.75298 6.79123 2.6631C6.88025 2.57437 6.96618 2.49118 7.05704 2.4055C7.07718 2.38682 7.08922 2.3743 7.14484 2.31564L7.1888 2.26947C7.39101 2.06738 7.61935 1.90198 7.86951 1.77528C8.12212 1.64867 8.3947 1.55906 8.67605 1.51056C8.98127 1.46122 9.29627 1.43381 9.61201 1.42966C9.79024 1.4255 9.93829 1.42344 10.0791 1.42344C10.2403 1.42187 10.3653 1.42156 10.6442 1.42156H16.9862C17.2671 1.42156 17.3913 1.42187 17.5456 1.42341C17.693 1.42344 17.8414 1.42551 18.0103 1.42954C18.3336 1.43378 18.6492 1.46119 18.9615 1.51166C19.2355 1.55889 19.5072 1.64838 19.7613 1.77611C20.0113 1.90197 20.2397 2.06705 20.4373 2.26495C20.6375 2.46449 20.8044 2.69278 20.9329 2.94251C21.0588 3.19192 21.1485 3.46315 21.1969 3.74303C21.247 4.04753 21.2744 4.36048 21.2781 4.67415C21.2798 4.73214 21.2809 4.78132 21.2818 4.83559C21.2829 4.89518 21.2835 4.94266 21.2846 5.05272L21.2857 5.14785L21.2857 5.70305V12.0953L21.2842 12.2114C21.2821 12.3869 21.2809 12.4642 21.2781 12.5587C21.274 12.8868 21.2463 13.2031 21.1948 13.516C21.1468 13.7942 21.056 14.0685 20.9264 14.3251C20.7985 14.5735 20.6299 14.8044 20.4286 15.0053C20.2282 15.2048 19.9966 15.3717 19.743 15.4992C19.4863 15.6281 19.2115 15.7185 18.9279 15.7672C18.6182 15.8178 18.2999 15.8455 17.9808 15.8494C17.782 15.8537 17.6451 15.8557 17.5096 15.8557H10.0804C9.9315 15.8551 9.77795 15.853 9.61881 15.8495C9.29761 15.8455 8.9831 15.8179 8.67201 15.767C8.39562 15.7195 8.12307 15.6301 7.86812 15.5025C7.62056 15.3769 7.39171 15.2112 7.19304 15.0132C7.18115 15.0016 7.16467 14.9847 7.1438 14.9628L7.14125 14.9601C7.09151 14.908 7.08029 14.8962 7.06854 14.885L7.05434 14.8718C6.98215 14.8044 6.91161 14.7356 6.79751 14.6222C6.70565 14.5324 6.63486 14.4624 6.47613 14.3046ZM13.2644 8.63836L10.7004 11.2027L11.505 12.0066L14.0688 9.4424L16.6343 12.0066L17.4368 11.2033L14.8723 8.63883L17.4363 6.07445L17.3652 6.00349C17.4109 5.92927 17.4365 5.84249 17.4365 5.75152C17.4365 5.55702 17.3194 5.38168 17.1397 5.30725C16.995 5.24733 16.8327 5.26232 16.7032 5.3422L16.6316 5.27064L14.068 7.8346L11.504 5.27064L11.4336 5.34117C11.3587 5.29542 11.2721 5.27064 11.1828 5.27064C11.0547 5.27064 10.932 5.32166 10.8417 5.41239C10.7042 5.54976 10.663 5.75637 10.7375 5.93587C10.7474 5.95984 10.7591 5.98269 10.7725 6.00431L10.7008 6.07615L13.2644 8.63836ZM11.3659 12.0432C11.1863 11.9687 10.9796 12.0099 10.8421 12.1474V12.1463C10.7517 12.2366 10.7008 12.3591 10.7008 12.4869C10.7008 12.6147 10.7517 12.7372 10.8421 12.8274C10.9796 12.965 11.1863 13.0061 11.3659 12.9317C11.5455 12.8573 11.6626 12.6819 11.6626 12.4874C11.6626 12.2929 11.5455 12.1176 11.3659 12.0432ZM17.2957 12.1483C17.4332 12.2857 17.4743 12.4923 17.3999 12.6718C17.3255 12.8513 17.1501 12.9683 16.9556 12.9683C16.7612 12.9683 16.5858 12.8513 16.5114 12.6718C16.4369 12.4923 16.4781 12.2857 16.6156 12.1483C16.7057 12.0578 16.8282 12.0068 16.956 12.0066C17.0838 12.0064 17.2064 12.057 17.2967 12.1472L17.2957 12.1483Z" fill="black"/>
</svg>
