<svg width="24" height="18" viewBox="0 0 24 18" fill="none" xmlns="http://www.w3.org/2000/svg">
<path fill-rule="evenodd" clip-rule="evenodd" d="M6.30063 1.98695C6.20741 2.07793 6.1073 2.17763 5.97361 2.31216C5.97361 2.31216 3.77111 4.51681 3.76375 4.52318C3.69542 4.58802 3.63856 4.64346 3.57961 4.70208C3.55252 4.72916 3.52842 4.75299 3.47705 4.80355C3.43287 4.84701 3.41242 4.8672 3.38696 4.89253L1.39554 6.88681C1.3528 6.93116 1.31613 6.9685 1.26898 7.01589L1.21529 7.06987C1.15449 7.13081 1.10638 7.18039 1.03839 7.25132C0.882443 7.40526 0.724308 7.57933 0.575403 7.76189C0.437047 7.90946 0.325349 8.08005 0.245377 8.26605L0.224247 8.32232C0.0801988 8.7684 0.0801988 9.24852 0.224247 9.6946L0.246307 9.75303C0.326885 9.93857 0.439176 10.1085 0.578057 10.2554C0.726333 10.4376 0.884354 10.6117 1.05143 10.7769C1.08658 10.8148 1.13837 10.8677 1.20754 10.9369C1.25532 10.9847 1.27588 11.0053 1.30149 11.0312C1.33457 11.0646 1.36317 11.0937 1.38972 11.1213L3.38639 13.1222C3.48532 13.2212 3.5296 13.2651 3.60883 13.3425C3.67395 13.4069 3.7125 13.4444 3.78387 13.5102L5.97558 15.7058C6.13985 15.8701 6.21355 15.9435 6.30643 16.0348C6.42718 16.1556 6.50677 16.2337 6.6311 16.3552C6.67794 16.4046 6.69549 16.4228 6.7195 16.4452C7.00009 16.7272 7.34233 16.9765 7.71709 17.1678C8.09222 17.3568 8.48994 17.4881 8.90042 17.559C9.285 17.6223 9.66878 17.6562 10.0535 17.661C10.2166 17.6646 10.3803 17.6668 10.542 17.6675L10.9271 17.6675H18.0919C18.2406 17.6675 18.388 17.6654 18.5924 17.6609C18.9748 17.6562 19.3624 17.6222 19.7458 17.5592C20.1645 17.4869 20.565 17.3544 20.9395 17.1651C21.319 16.9731 21.6653 16.722 21.9656 16.4212C22.2645 16.1209 22.5146 15.7765 22.7071 15.3999C22.8978 15.0203 23.0298 14.6189 23.1008 14.2047C23.1643 13.8165 23.1981 13.429 23.2027 13.0407C23.2056 12.9453 23.207 12.8613 23.2092 12.6742L23.2107 12.5545L23.2108 11.9644V5.4311L23.2097 5.32774C23.2084 5.21248 23.2078 5.16214 23.2067 5.09754C23.2057 5.03697 23.2044 4.9814 23.2028 4.92787C23.1985 4.5545 23.165 4.17048 23.103 3.79059C23.0315 3.37474 22.9007 2.97677 22.7138 2.60437C22.5203 2.22601 22.2719 1.88421 21.9755 1.58678C21.6789 1.288 21.3352 1.038 20.9585 0.847231C20.5868 0.659166 20.1895 0.527484 19.7793 0.456391C19.3929 0.393529 19.0091 0.359993 18.6243 0.354954C18.4501 0.350734 18.2894 0.348482 18.1349 0.348482C17.9789 0.346882 17.8498 0.346558 17.5601 0.346558H11.1173C10.8298 0.346558 10.6999 0.346884 10.5368 0.348515C10.389 0.348482 10.2288 0.350719 10.045 0.355079C9.66766 0.360036 9.28444 0.393578 8.90528 0.455303C8.48826 0.527602 8.09058 0.659141 7.71859 0.846752C7.34104 1.03916 6.99862 1.28873 6.70172 1.58735C6.68796 1.60089 6.67789 1.61149 6.59383 1.70124C6.48955 1.80015 6.39365 1.89358 6.30063 1.98695ZM6.47661 14.1918L4.29611 12.0209C4.29611 12.0209 4.25261 11.9816 4.24809 11.9778C4.21444 11.9458 4.1855 11.9177 4.11321 11.8467C4.06103 11.7963 4.02043 11.7563 3.928 11.6644L1.97045 9.71487C1.94749 9.69109 1.91551 9.65866 1.87924 9.62228C1.85229 9.59525 1.83053 9.57357 1.78285 9.52617C1.7229 9.46657 1.67986 9.42288 1.63974 9.38053C1.48645 9.22934 1.35669 9.08661 1.2353 8.93698L1.1937 8.8906C1.16158 8.85817 1.13469 8.82109 1.11391 8.78066C1.06651 8.61458 1.06663 8.43863 1.11427 8.2726C1.13508 8.23145 1.16212 8.19365 1.1945 8.16056L1.23275 8.11773C1.35481 7.96778 1.48512 7.82466 1.6231 7.68904C1.69702 7.61271 1.73975 7.56894 1.77206 7.53638L1.84531 7.46365C1.89667 7.41237 1.93775 7.37079 1.97718 7.32996L3.9273 5.38924C3.94871 5.36807 3.96684 5.35029 4.01809 5.30018C4.06239 5.25685 4.08804 5.23164 4.11647 5.20338C4.16046 5.15992 4.20372 5.11788 4.24621 5.07739C4.25554 5.06963 4.26641 5.05961 4.29736 5.03108L6.47596 2.86243C6.60456 2.73382 6.69914 2.64022 6.79171 2.55034C6.88074 2.46161 6.96666 2.37842 7.05753 2.29274C7.07767 2.27405 7.0897 2.26154 7.14532 2.20288L7.18929 2.15671C7.3915 1.95461 7.61983 1.78922 7.86999 1.66252C8.1226 1.53591 8.39519 1.4463 8.67653 1.3978C8.98175 1.34845 9.29675 1.32105 9.61249 1.3169C9.79073 1.31273 9.93878 1.31068 10.0796 1.31068C10.2408 1.30911 10.3658 1.3088 10.6447 1.3088H16.9867C17.2676 1.3088 17.3918 1.30911 17.5461 1.31065C17.6935 1.31068 17.8419 1.31275 18.0108 1.31678C18.3341 1.32102 18.6497 1.34843 18.962 1.3989C19.236 1.44613 19.5077 1.53562 19.7618 1.66335C20.0118 1.78921 20.2402 1.95429 20.4378 2.15218C20.638 2.35173 20.8048 2.58002 20.9334 2.82974C21.0593 3.07916 21.149 3.35039 21.1974 3.63027C21.2475 3.93476 21.2749 4.24772 21.2786 4.56139C21.2803 4.61938 21.2814 4.66856 21.2823 4.72283C21.2833 4.78242 21.2839 4.8299 21.2851 4.93996L21.2862 5.03509L21.2862 5.59029V11.9825L21.2847 12.0986C21.2826 12.2742 21.2813 12.3514 21.2785 12.4459C21.2745 12.774 21.2468 13.0904 21.1953 13.4033C21.1473 13.6814 21.0565 13.9557 20.9268 14.2123C20.799 14.4608 20.6304 14.6916 20.429 14.8925C20.2287 15.092 19.9971 15.2589 19.7435 15.3865C19.4868 15.5154 19.212 15.6057 18.9284 15.6545C18.6187 15.705 18.3003 15.7328 17.9813 15.7367C17.7825 15.7409 17.6456 15.7429 17.5101 15.7429H10.0808C9.93199 15.7423 9.77843 15.7403 9.61929 15.7368C9.2981 15.7327 8.98359 15.7052 8.67249 15.6543C8.39611 15.6068 8.12356 15.5174 7.86861 15.3897C7.62105 15.2641 7.3922 15.0985 7.19353 14.9004C7.18164 14.8889 7.16515 14.8719 7.14429 14.85L7.14163 14.8472C7.09198 14.7952 7.08077 14.7834 7.06902 14.7723L7.05482 14.759C6.98264 14.6916 6.9121 14.6229 6.79799 14.5094C6.70613 14.4197 6.63535 14.3496 6.47661 14.1918ZM13.2651 8.52578L10.7013 11.09L11.506 11.8938L14.0696 9.32983L16.6349 11.8938L17.4374 11.0905L14.873 8.52625L17.4372 5.96168L17.3657 5.89023C17.4112 5.81612 17.4367 5.72954 17.4367 5.63879C17.4367 5.44429 17.3195 5.26895 17.1398 5.19452C16.9953 5.13468 16.8333 5.14955 16.7039 5.22914L16.6326 5.15787L14.0688 7.72202L11.5046 5.1579L11.4343 5.22844C11.3594 5.18269 11.2727 5.1579 11.1834 5.1579C11.0554 5.1579 10.9326 5.20892 10.8423 5.29966C10.7048 5.43703 10.6637 5.64364 10.7381 5.82314C10.748 5.84711 10.7598 5.86996 10.7731 5.89158L10.7015 5.96342L13.2651 8.52578ZM11.3665 11.9304C11.1869 11.856 10.9802 11.8972 10.8428 12.0347V12.0336C10.7523 12.1238 10.7015 12.2464 10.7015 12.3742C10.7015 12.502 10.7523 12.6245 10.8428 12.7147C10.9802 12.8523 11.1869 12.8934 11.3665 12.819C11.5461 12.7445 11.6632 12.5692 11.6632 12.3747C11.6632 12.1802 11.5461 12.0049 11.3665 11.9304ZM17.2958 12.0356C17.4333 12.1729 17.4745 12.3796 17.4001 12.5591C17.3256 12.7386 17.1503 12.8556 16.9558 12.8556C16.7613 12.8556 16.5859 12.7386 16.5115 12.5591C16.4371 12.3796 16.4782 12.1729 16.6158 12.0356C16.7059 11.945 16.8283 11.894 16.9561 11.8938C17.0839 11.8936 17.2065 11.9442 17.2969 12.0345L17.2958 12.0356Z" fill="black"/>
</svg>
