<svg width="228" height="255" viewBox="0 0 228 255" fill="none" xmlns="http://www.w3.org/2000/svg">
<path d="M191.526 221.873C195.467 227.676 193.983 235.638 187.815 238.98C169.575 248.863 149.13 254.16 128.256 254.317C103.135 254.506 78.5215 247.242 57.5288 233.442C36.5361 219.642 20.1069 199.927 10.3187 176.79C0.530614 153.653 -2.17679 128.134 2.53887 103.458C7.25454 78.7823 19.1815 56.0592 36.8115 38.162C54.4415 20.2648 76.9827 7.99746 101.585 2.91121C126.187 -2.17505 151.744 0.148239 175.026 9.58728C194.37 17.4301 211.422 29.893 224.732 45.8056C229.232 51.1866 227.676 59.1349 221.873 63.076C216.07 67.0172 208.225 65.4434 203.591 60.1766C193.2 48.3662 180.166 39.084 165.481 33.13C146.856 25.5787 126.409 23.7201 106.728 27.7891C87.0464 31.8581 69.0134 41.672 54.9094 55.9897C40.8054 70.3075 31.2639 88.486 27.4913 108.227C23.7188 127.967 25.8847 148.383 33.7152 166.893C41.5457 185.402 54.6891 201.174 71.4833 212.214C88.2775 223.253 107.968 229.065 128.065 228.914C143.912 228.795 159.449 224.973 173.464 217.826C179.713 214.64 187.585 216.069 191.526 221.873Z" fill="#F1F4F8"/>
</svg>
