<svg width="255" height="255" viewBox="0 0 255 255" fill="none" xmlns="http://www.w3.org/2000/svg">
<path d="M240.854 114.096C247.822 113.286 254.195 118.285 254.306 125.299C254.726 151.943 246.751 178.167 231.342 200.168C213.493 225.653 186.911 243.7 156.639 250.887C126.366 258.073 94.5094 253.898 67.1108 239.155C39.7123 224.411 18.678 200.124 7.99822 170.901C-2.6816 141.678 -2.26411 109.551 9.17152 80.6154C20.6071 51.6796 42.2654 27.9474 70.0378 13.9208C97.8103 -0.105762 129.765 -3.45112 159.84 4.51938C185.805 11.4006 208.81 26.3026 225.668 46.9391C230.107 52.3719 228.459 60.302 222.61 64.1757C216.761 68.0493 208.936 66.3844 204.363 61.0644C191.041 45.5645 173.279 34.3618 153.332 29.0757C129.272 22.6993 103.708 25.3756 81.4905 36.5968C59.2725 47.8181 41.9459 66.8038 32.7974 89.9525C23.6489 113.101 23.3149 138.802 31.8588 162.181C40.4026 185.56 57.23 204.989 79.1489 216.784C101.068 228.579 126.553 231.918 150.771 226.169C174.989 220.42 196.254 205.983 210.533 185.595C222.371 168.693 228.724 148.677 228.913 128.24C228.978 121.225 233.886 114.906 240.854 114.096Z" fill="#F57F3C"/>
</svg>
