<svg width="228" height="255" viewBox="0 0 228 255" fill="none" xmlns="http://www.w3.org/2000/svg">
<path d="M191.526 221.872C195.467 227.676 193.982 235.638 187.814 238.98C169.575 248.863 149.13 254.16 128.256 254.317C103.135 254.506 78.5213 247.241 57.5286 233.442C36.5358 219.642 20.1066 199.927 10.3185 176.79C0.530369 153.653 -2.17704 128.133 2.53863 103.458C7.25429 78.7822 19.1812 56.059 36.8112 38.1618C54.4412 20.2647 76.9824 7.99731 101.584 2.91106C126.186 -2.1752 151.744 0.148087 175.026 9.58712C194.37 17.43 211.421 29.8928 224.731 45.8055C229.232 51.1864 227.676 59.1347 221.873 63.0759C216.069 67.017 208.225 65.4432 203.591 60.1765C193.2 48.366 180.166 39.0838 165.481 33.1298C146.855 25.5786 126.409 23.72 106.728 27.789C87.0461 31.858 69.0132 41.6719 54.9092 55.9896C40.8052 70.3073 31.2636 88.4859 27.4911 108.226C23.7186 127.967 25.8845 148.383 33.715 166.892C41.5455 185.402 54.6888 201.174 71.483 212.214C88.2772 223.253 107.968 229.065 128.065 228.914C143.911 228.795 159.449 224.973 173.463 217.826C179.713 214.639 187.585 216.069 191.526 221.872Z" fill="#F1F4F8"/>
</svg>
