<svg width="218" height="255" viewBox="0 0 218 255" fill="none" xmlns="http://www.w3.org/2000/svg">
<path d="M4.69784 51.533C-0.555189 46.8835 -1.08423 38.8016 4.06646 34.039C19.2982 19.9549 37.8004 9.76988 57.9876 4.45966C82.2833 -1.93127 107.929 -0.974172 131.68 7.20994C155.432 15.394 176.224 30.4376 191.426 50.4382C206.628 70.4388 215.557 94.4981 217.086 119.574C218.614 144.649 212.672 169.615 200.011 191.314C187.351 213.013 168.54 230.47 145.958 241.478C123.376 252.486 98.0369 256.55 73.1449 253.157C52.4622 250.338 32.86 242.475 16.0306 230.345C10.3397 226.243 9.88334 218.157 14.5328 212.904C19.1823 207.651 27.1721 207.237 32.9639 211.196C45.9516 220.072 60.8746 225.846 76.576 227.986C96.4896 230.7 116.761 227.449 134.827 218.642C152.892 209.836 167.941 195.87 178.069 178.511C188.198 161.152 192.951 141.18 191.729 121.119C190.506 101.059 183.362 81.8112 171.201 65.8107C159.039 49.8102 142.406 37.7754 123.404 31.2281C104.403 24.6808 83.8868 23.9152 64.4502 29.0279C49.1249 33.0592 35.0135 40.6023 23.1999 50.9902C17.9317 55.6225 9.95086 56.1825 4.69784 51.533Z" fill="#3C3DF5"/>
</svg>
