<svg width="32" height="32" viewBox="0 0 32 32" fill="none" xmlns="http://www.w3.org/2000/svg">
<g clip-path="url(#clip0_78_2986)">
<path d="M22.4017 12.48C21.9392 12.48 21.4813 12.5711 21.054 12.748C20.6268 12.925 20.2385 13.1844 19.9115 13.5114C19.5845 13.8384 19.3251 14.2267 19.1481 14.6539C18.9712 15.0812 18.8801 15.5391 18.8801 16.0016C18.8801 16.464 18.9712 16.922 19.1481 17.3492C19.3251 17.7765 19.5845 18.1647 19.9115 18.4917C20.2385 18.8187 20.6268 19.0781 21.054 19.2551C21.4813 19.4321 21.9392 19.5232 22.4017 19.5232C23.3357 19.523 24.2313 19.1517 24.8916 18.4912C25.5519 17.8306 25.9227 16.9348 25.9225 16.0008C25.9223 15.0668 25.551 14.1711 24.8905 13.5109C24.2299 12.8506 23.3341 12.4798 22.4001 12.48H22.4017ZM9.60168 12.48C9.13921 12.48 8.68128 12.5711 8.25402 12.748C7.82676 12.925 7.43854 13.1844 7.11153 13.5114C6.78452 13.8384 6.52512 14.2267 6.34814 14.6539C6.17117 15.0812 6.08008 15.5391 6.08008 16.0016C6.08008 16.464 6.17117 16.922 6.34814 17.3492C6.52512 17.7765 6.78452 18.1647 7.11153 18.4917C7.43854 18.8187 7.82676 19.0781 8.25402 19.2551C8.68128 19.4321 9.13921 19.5232 9.60168 19.5232C10.5357 19.523 11.4313 19.1517 12.0916 18.4912C12.7519 17.8306 13.1227 16.9348 13.1225 16.0008C13.1223 15.0668 12.751 14.1711 12.0905 13.5109C11.4299 12.8506 10.5341 12.4798 9.60008 12.48H9.60168Z" fill="#699BF7"/>
<path d="M22.4017 24.48C21.9392 24.48 21.4813 24.5711 21.054 24.748C20.6268 24.925 20.2385 25.1844 19.9115 25.5114C19.5845 25.8384 19.3251 26.2267 19.1481 26.6539C18.9712 27.0812 18.8801 27.5391 18.8801 28.0016C18.8801 28.464 18.9712 28.922 19.1481 29.3492C19.3251 29.7765 19.5845 30.1647 19.9115 30.4917C20.2385 30.8187 20.6268 31.0781 21.054 31.2551C21.4813 31.4321 21.9392 31.5232 22.4017 31.5232C23.3357 31.523 24.2313 31.1517 24.8916 30.4912C25.5519 29.8306 25.9227 28.9348 25.9225 28.0008C25.9223 27.0668 25.551 26.1711 24.8905 25.5109C24.2299 24.8506 23.3341 24.4798 22.4001 24.48H22.4017ZM9.60168 24.48C9.13921 24.48 8.68128 24.5711 8.25402 24.748C7.82676 24.925 7.43854 25.1844 7.11153 25.5114C6.78452 25.8384 6.52512 26.2267 6.34814 26.6539C6.17117 27.0812 6.08008 27.5391 6.08008 28.0016C6.08008 28.464 6.17117 28.922 6.34814 29.3492C6.52512 29.7765 6.78452 30.1647 7.11153 30.4917C7.43854 30.8187 7.82676 31.0781 8.25402 31.2551C8.68128 31.4321 9.13921 31.5232 9.60168 31.5232C10.5357 31.523 11.4313 31.1517 12.0916 30.4912C12.7519 29.8306 13.1227 28.9348 13.1225 28.0008C13.1223 27.0668 12.751 26.1711 12.0905 25.5109C11.4299 24.8506 10.5341 24.4798 9.60008 24.48H9.60168Z" fill="#699BF7"/>
</g>
<defs>
<clipPath id="clip0_78_2986">
<rect width="32" height="32" fill="white"/>
</clipPath>
</defs>
</svg>
