<svg width="272" height="25" viewBox="0 0 272 25" fill="none" xmlns="http://www.w3.org/2000/svg">
<path d="M1 12.1429L12.1429 1L23.2857 12.1429" stroke="black" stroke-width="1.71429" stroke-linecap="round" stroke-linejoin="round"/>
<path d="M4.42871 14.7144V23.2858H19.8573V14.7144" stroke="black" stroke-width="1.71429" stroke-linecap="round" stroke-linejoin="round"/>
<path d="M259.594 12.1429C262.671 12.1429 265.166 9.64844 265.166 6.57143C265.166 3.49441 262.671 1 259.594 1C256.517 1 254.023 3.49441 254.023 6.57143C254.023 9.64844 256.517 12.1429 259.594 12.1429Z" stroke="#2BB028" stroke-width="1.71429" stroke-linecap="round" stroke-linejoin="round"/>
<path d="M270.189 23.2856C269.469 21.0414 268.055 19.0837 266.151 17.6947C264.247 16.3058 261.951 15.5574 259.594 15.5574C257.237 15.5574 254.942 16.3058 253.038 17.6947C251.133 19.0837 249.72 21.0414 249 23.2856H270.189Z" stroke="#2BB028" stroke-width="1.71429" stroke-linecap="round" stroke-linejoin="round"/>
<path d="M136.143 14.7144V23.2858" stroke="black" stroke-width="1.71429" stroke-linecap="round" stroke-linejoin="round"/>
<path d="M131.857 23.2856H140.428" stroke="black" stroke-width="1.71429" stroke-linecap="round" stroke-linejoin="round"/>
<path d="M130.143 9.57138C128.779 9.57138 127.471 9.02954 126.506 8.06507C125.542 7.1006 125 5.79249 125 4.42852V2.71423H131V9.57138H130.143Z" stroke="black" stroke-width="1.71429" stroke-linecap="round" stroke-linejoin="round"/>
<path d="M142.143 9.57138C143.507 9.57138 144.815 9.02954 145.779 8.06507C146.744 7.1006 147.286 5.79249 147.286 4.42852V2.71423H141.286V9.57138H142.143Z" stroke="black" stroke-width="1.71429" stroke-linecap="round" stroke-linejoin="round"/>
<path d="M141.286 9.57143C141.286 10.9354 140.744 12.2435 139.779 13.208C138.815 14.1725 137.507 14.7143 136.143 14.7143C134.779 14.7143 133.471 14.1725 132.506 13.208C131.542 12.2435 131 10.9354 131 9.57143V1H141.286V9.57143Z" stroke="black" stroke-width="1.71429" stroke-linecap="round" stroke-linejoin="round"/>
</svg>
