<svg width="79" height="13" viewBox="0 0 79 13" fill="none" xmlns="http://www.w3.org/2000/svg">
<path fill-rule="evenodd" clip-rule="evenodd" d="M20.8039 0.499878H19.6373C18.9929 0.499878 18.4706 1.00356 18.4706 1.62488V11.3749C18.4706 11.9962 18.9929 12.4999 19.6373 12.4999H20.8039C21.4482 12.4999 21.9706 11.9962 21.9706 11.3749V1.62488C21.9706 1.00356 21.4482 0.499878 20.8039 0.499878ZM14.1471 3.12501H15.3137C15.9581 3.12501 16.4804 3.62869 16.4804 4.25001V11.375C16.4804 11.9963 15.9581 12.5 15.3137 12.5H14.1471C13.5027 12.5 12.9804 11.9963 12.9804 11.375V4.25001C12.9804 3.62869 13.5027 3.12501 14.1471 3.12501ZM9.82353 5.7498H8.65686C8.01253 5.7498 7.4902 6.25348 7.4902 6.8748V11.3748C7.4902 11.9961 8.01253 12.4998 8.65686 12.4998H9.82353C10.4679 12.4998 10.9902 11.9961 10.9902 11.3748V6.8748C10.9902 6.25348 10.4679 5.7498 9.82353 5.7498ZM4.33333 7.99976H3.16667C2.52233 7.99976 2 8.50344 2 9.12476V11.3748C2 11.9961 2.52233 12.4998 3.16667 12.4998H4.33333C4.97767 12.4998 5.5 11.9961 5.5 11.3748V9.12476C5.5 8.50344 4.97767 7.99976 4.33333 7.99976Z" fill="black"/>
<path fill-rule="evenodd" clip-rule="evenodd" d="M36.4712 2.84599C38.9377 2.8461 41.31 3.81668 43.0976 5.55712C43.2322 5.69149 43.4474 5.68979 43.5799 5.55332L44.8667 4.2234C44.9338 4.15418 44.9713 4.06042 44.9707 3.96287C44.9701 3.86531 44.9316 3.77201 44.8637 3.7036C40.1718 -0.901199 32.7698 -0.901199 28.0779 3.7036C28.0099 3.77196 27.9713 3.86523 27.9707 3.96279C27.9701 4.06034 28.0074 4.15413 28.0745 4.2234L29.3617 5.55332C29.4942 5.69 29.7095 5.6917 29.844 5.55712C31.6319 3.81656 34.0044 2.84598 36.4712 2.84599ZM36.4712 7.17266C37.8264 7.17257 39.1332 7.68843 40.1378 8.61999C40.2736 8.7522 40.4877 8.74933 40.6201 8.61353L41.9054 7.28361C41.9731 7.21386 42.0107 7.11922 42.0097 7.02089C42.0087 6.92255 41.9693 6.82872 41.9002 6.76039C38.8411 3.84629 34.1038 3.84629 31.0447 6.76039C30.9756 6.82872 30.9362 6.9226 30.9353 7.02097C30.9344 7.11933 30.972 7.21396 31.0399 7.28361L32.3248 8.61353C32.4572 8.74933 32.6713 8.7522 32.8071 8.61999C33.811 7.68905 35.1168 7.17323 36.4712 7.17266ZM39.0458 10.084C39.0478 10.1826 39.0099 10.2777 38.9412 10.3468L36.7179 12.6445C36.6527 12.712 36.5639 12.75 36.4711 12.75C36.3784 12.75 36.2896 12.712 36.2244 12.6445L34.0008 10.3468C33.9321 10.2776 33.8943 10.1825 33.8963 10.0839C33.8984 9.98529 33.94 9.89191 34.0115 9.82581C35.4314 8.59595 37.5109 8.59595 38.9308 9.82581C39.0022 9.89196 39.0438 9.98537 39.0458 10.084Z" fill="black"/>
<g clip-path="url(#clip0_5_137)">
<rect opacity="0.4" x="51.4707" y="0.5" width="24" height="12" rx="3.5" stroke="black"/>
<path opacity="0.5" d="M76.9707 4.5V8.5C77.7766 8.16122 78.3007 7.37313 78.3007 6.5C78.3007 5.62687 77.7766 4.83878 76.9707 4.5Z" fill="black"/>
<rect x="52.9707" y="2" width="21" height="9" rx="2" fill="black"/>
</g>
<defs>
<clipPath id="clip0_5_137">
<rect width="27.33" height="13" fill="white" transform="translate(50.9707)"/>
</clipPath>
</defs>
</svg>
