<svg width="17" height="13" viewBox="0 0 17 13" fill="none" xmlns="http://www.w3.org/2000/svg">
<path fill-rule="evenodd" clip-rule="evenodd" d="M8.84948 3.28846C11.1632 3.28856 13.3885 4.17633 15.0653 5.76828C15.1916 5.89119 15.3934 5.88964 15.5178 5.76481L16.7248 4.54836C16.7878 4.48504 16.8229 4.39928 16.8224 4.31005C16.8218 4.22082 16.7857 4.13547 16.722 4.0729C12.3208 -0.139025 5.37744 -0.139025 0.976255 4.0729C0.912501 4.13543 0.876328 4.22075 0.87574 4.30998C0.875152 4.39921 0.910198 4.485 0.973123 4.54836L2.18051 5.76481C2.30479 5.88983 2.50678 5.89138 2.63297 5.76828C4.31003 4.17623 6.53554 3.28846 8.84948 3.28846ZM8.84948 7.2461C10.1207 7.24602 11.3466 7.71786 12.2889 8.56994C12.4164 8.69087 12.6171 8.68825 12.7414 8.56404L13.947 7.34758C14.0105 7.28378 14.0457 7.19722 14.0448 7.10727C14.0439 7.01733 14.0069 6.9315 13.9421 6.869C11.0726 4.20353 6.62879 4.20353 3.75926 6.869C3.69444 6.9315 3.65746 7.01737 3.65661 7.10735C3.65576 7.19732 3.69111 7.28387 3.75473 7.34758L4.96003 8.56404C5.08427 8.68825 5.28504 8.69087 5.41249 8.56994C6.35418 7.71843 7.57908 7.24662 8.84948 7.2461ZM11.2646 9.90889C11.2664 9.99909 11.2309 10.0861 11.1665 10.1492L9.08094 12.2509C9.0198 12.3127 8.93645 12.3475 8.84948 12.3475C8.76252 12.3475 8.67917 12.3127 8.61803 12.2509L6.53217 10.1492C6.46773 10.086 6.43229 9.99902 6.4342 9.90882C6.43611 9.81862 6.47521 9.73321 6.54226 9.67274C7.87415 8.54782 9.82482 8.54782 11.1567 9.67274C11.2237 9.73326 11.2628 9.8187 11.2646 9.90889Z" fill="black"/>
</svg>
