<svg width="17" height="13" viewBox="0 0 17 13" fill="none" xmlns="http://www.w3.org/2000/svg">
<path fill-rule="evenodd" clip-rule="evenodd" d="M8.28528 3.28846C10.599 3.28856 12.8242 4.17633 14.5011 5.76828C14.6274 5.89119 14.8292 5.88964 14.9536 5.76481L16.1606 4.54836C16.2236 4.48504 16.2587 4.39928 16.2581 4.31005C16.2576 4.22082 16.2215 4.13547 16.1578 4.0729C11.7566 -0.139025 4.81324 -0.139025 0.412046 4.0729C0.348292 4.13543 0.312119 4.22075 0.311531 4.30998C0.310943 4.39921 0.345989 4.485 0.408914 4.54836L1.6163 5.76481C1.74058 5.88983 1.94257 5.89138 2.06876 5.76828C3.74582 4.17623 5.97133 3.28846 8.28528 3.28846ZM8.28527 7.2461C9.55651 7.24602 10.7824 7.71786 11.7247 8.56994C11.8522 8.69087 12.0529 8.68825 12.1772 8.56404L13.3828 7.34758C13.4463 7.28378 13.4815 7.19722 13.4806 7.10727C13.4797 7.01733 13.4427 6.9315 13.3779 6.869C10.5084 4.20353 6.06458 4.20353 3.19505 6.869C3.13023 6.9315 3.09325 7.01737 3.0924 7.10735C3.09155 7.19732 3.1269 7.28387 3.19053 7.34758L4.39582 8.56404C4.52006 8.68825 4.72083 8.69087 4.84829 8.56994C5.78997 7.71843 7.01488 7.24662 8.28527 7.2461ZM10.7004 9.90889C10.7022 9.99909 10.6667 10.0861 10.6022 10.1492L8.51673 12.2509C8.45559 12.3127 8.37224 12.3475 8.28528 12.3475C8.19831 12.3475 8.11496 12.3127 8.05382 12.2509L5.96796 10.1492C5.90353 10.086 5.86808 9.99902 5.86999 9.90882C5.8719 9.81862 5.911 9.73321 5.97806 9.67274C7.30994 8.54782 9.26061 8.54782 10.5925 9.67274C10.6595 9.73326 10.6985 9.8187 10.7004 9.90889Z" fill="black"/>
</svg>
