<svg width="17" height="13" viewBox="0 0 17 13" fill="none" xmlns="http://www.w3.org/2000/svg">
<path fill-rule="evenodd" clip-rule="evenodd" d="M8.37365 3.28846C10.6874 3.28856 12.9126 4.17633 14.5895 5.76828C14.7157 5.89119 14.9176 5.88964 15.0419 5.76481L16.249 4.54836C16.3119 4.48504 16.3471 4.39928 16.3465 4.31005C16.346 4.22082 16.3099 4.13547 16.2462 4.0729C11.845 -0.139025 4.90161 -0.139025 0.500425 4.0729C0.436671 4.13543 0.400498 4.22075 0.39991 4.30998C0.399322 4.39921 0.434368 4.485 0.497293 4.54836L1.70468 5.76481C1.82896 5.88983 2.03095 5.89138 2.15714 5.76828C3.8342 4.17623 6.05971 3.28846 8.37365 3.28846ZM8.37365 7.2461C9.64489 7.24602 10.8708 7.71786 11.8131 8.56994C11.9405 8.69087 12.1413 8.68825 12.2655 8.56404L13.4712 7.34758C13.5347 7.28378 13.5699 7.19722 13.569 7.10727C13.5681 7.01733 13.5311 6.9315 13.4663 6.869C10.5968 4.20353 6.15296 4.20353 3.28343 6.869C3.21861 6.9315 3.18163 7.01737 3.18078 7.10735C3.17993 7.19732 3.21528 7.28387 3.2789 7.34758L4.4842 8.56404C4.60844 8.68825 4.80921 8.69087 4.93666 8.56994C5.87835 7.71843 7.10325 7.24662 8.37365 7.2461ZM10.7888 9.90889C10.7906 9.99909 10.7551 10.0861 10.6906 10.1492L8.60511 12.2509C8.54397 12.3127 8.46062 12.3475 8.37365 12.3475C8.28669 12.3475 8.20334 12.3127 8.1422 12.2509L6.05634 10.1492C5.9919 10.086 5.95646 9.99902 5.95837 9.90882C5.96028 9.81862 5.99938 9.73321 6.06643 9.67274C7.39832 8.54782 9.34899 8.54782 10.6809 9.67274C10.7479 9.73326 10.7869 9.8187 10.7888 9.90889Z" fill="black"/>
</svg>
