<svg width="17" height="13" viewBox="0 0 17 13" fill="none" xmlns="http://www.w3.org/2000/svg">
<path fill-rule="evenodd" clip-rule="evenodd" d="M8.82043 3.28846C11.1342 3.28856 13.3594 4.17633 15.0362 5.76828C15.1625 5.89119 15.3644 5.88964 15.4887 5.76481L16.6957 4.54836C16.7587 4.48504 16.7938 4.39928 16.7933 4.31005C16.7928 4.22082 16.7567 4.13547 16.693 4.0729C12.2918 -0.139025 5.34839 -0.139025 0.947202 4.0729C0.883448 4.13543 0.847275 4.22075 0.846687 4.30998C0.846099 4.39921 0.881145 4.485 0.94407 4.54836L2.15145 5.76481C2.27574 5.88983 2.47772 5.89138 2.60392 5.76828C4.28098 4.17623 6.50648 3.28846 8.82043 3.28846ZM8.82043 7.2461C10.0917 7.24602 11.3175 7.71786 12.2599 8.56994C12.3873 8.69087 12.5881 8.68825 12.7123 8.56404L13.918 7.34758C13.9815 7.28378 14.0167 7.19722 14.0158 7.10727C14.0149 7.01733 13.9779 6.9315 13.9131 6.869C11.0436 4.20353 6.59973 4.20353 3.73021 6.869C3.66539 6.9315 3.62841 7.01737 3.62756 7.10735C3.62671 7.19732 3.66206 7.28387 3.72568 7.34758L4.93098 8.56404C5.05522 8.68825 5.25599 8.69087 5.38344 8.56994C6.32513 7.71843 7.55003 7.24662 8.82043 7.2461ZM11.2355 9.90889C11.2374 9.99909 11.2019 10.0861 11.1374 10.1492L9.05188 12.2509C8.99075 12.3127 8.9074 12.3475 8.82043 12.3475C8.73346 12.3475 8.65011 12.3127 8.58898 12.2509L6.50312 10.1492C6.43868 10.086 6.40323 9.99902 6.40515 9.90882C6.40706 9.81862 6.44616 9.73321 6.51321 9.67274C7.8451 8.54782 9.79577 8.54782 11.1277 9.67274C11.1947 9.73326 11.2337 9.8187 11.2355 9.90889Z" fill="black"/>
</svg>
