<svg width="17" height="13" viewBox="0 0 17 13" fill="none" xmlns="http://www.w3.org/2000/svg">
<path fill-rule="evenodd" clip-rule="evenodd" d="M8.31555 3.28846C10.6293 3.28856 12.8545 4.17633 14.5314 5.76828C14.6576 5.89119 14.8595 5.88964 14.9838 5.76481L16.1909 4.54836C16.2538 4.48504 16.2889 4.39928 16.2884 4.31005C16.2879 4.22082 16.2518 4.13547 16.1881 4.0729C11.7869 -0.139025 4.84351 -0.139025 0.44232 4.0729C0.378565 4.13543 0.342392 4.22075 0.341804 4.30998C0.341216 4.39921 0.376262 4.485 0.439187 4.54836L1.64657 5.76481C1.77085 5.88983 1.97284 5.89138 2.09904 5.76828C3.7761 4.17623 6.0016 3.28846 8.31555 3.28846ZM8.31555 7.2461C9.58679 7.24602 10.8127 7.71786 11.755 8.56994C11.8824 8.69087 12.0832 8.68825 12.2074 8.56404L13.4131 7.34758C13.4766 7.28378 13.5118 7.19722 13.5109 7.10727C13.51 7.01733 13.473 6.9315 13.4082 6.869C10.5387 4.20353 6.09485 4.20353 3.22532 6.869C3.16051 6.9315 3.12352 7.01737 3.12267 7.10735C3.12182 7.19732 3.15717 7.28387 3.2208 7.34758L4.42609 8.56404C4.55034 8.68825 4.75111 8.69087 4.87856 8.56994C5.82025 7.71843 7.04515 7.24662 8.31555 7.2461ZM10.7307 9.90889C10.7325 9.99909 10.697 10.0861 10.6325 10.1492L8.547 12.2509C8.48587 12.3127 8.40252 12.3475 8.31555 12.3475C8.22858 12.3475 8.14523 12.3127 8.0841 12.2509L5.99823 10.1492C5.9338 10.086 5.89835 9.99902 5.90026 9.90882C5.90217 9.81862 5.94127 9.73321 6.00833 9.67274C7.34021 8.54782 9.29088 8.54782 10.6228 9.67274C10.6898 9.73326 10.7288 9.8187 10.7307 9.90889Z" fill="black"/>
</svg>
