<svg width="17" height="13" viewBox="0 0 17 13" fill="none" xmlns="http://www.w3.org/2000/svg">
<path fill-rule="evenodd" clip-rule="evenodd" d="M8.79065 3.28846C11.1044 3.28856 13.3296 4.17633 15.0065 5.76828C15.1327 5.89119 15.3346 5.88964 15.4589 5.76481L16.666 4.54836C16.7289 4.48504 16.764 4.39928 16.7635 4.31005C16.763 4.22082 16.7269 4.13547 16.6632 4.0729C12.262 -0.139025 5.31861 -0.139025 0.917417 4.0729C0.853663 4.13543 0.81749 4.22075 0.816902 4.30998C0.816314 4.39921 0.85136 4.485 0.914285 4.54836L2.12167 5.76481C2.24595 5.88983 2.44794 5.89138 2.57413 5.76828C4.25119 4.17623 6.4767 3.28846 8.79065 3.28846ZM8.79065 7.2461C10.0619 7.24602 11.2878 7.71786 12.2301 8.56994C12.3575 8.69087 12.5583 8.68825 12.6825 8.56404L13.8882 7.34758C13.9517 7.28378 13.9869 7.19722 13.986 7.10727C13.9851 7.01733 13.9481 6.9315 13.8833 6.869C11.0138 4.20353 6.56995 4.20353 3.70042 6.869C3.6356 6.9315 3.59862 7.01737 3.59777 7.10735C3.59692 7.19732 3.63227 7.28387 3.6959 7.34758L4.90119 8.56404C5.02543 8.68825 5.2262 8.69087 5.35366 8.56994C6.29535 7.71843 7.52025 7.24662 8.79065 7.2461ZM11.2058 9.90889C11.2076 9.99909 11.1721 10.0861 11.1076 10.1492L9.0221 12.2509C8.96097 12.3127 8.87761 12.3475 8.79065 12.3475C8.70368 12.3475 8.62033 12.3127 8.55919 12.2509L6.47333 10.1492C6.4089 10.086 6.37345 9.99902 6.37536 9.90882C6.37727 9.81862 6.41637 9.73321 6.48343 9.67274C7.81531 8.54782 9.76598 8.54782 11.0979 9.67274C11.1649 9.73326 11.2039 9.8187 11.2058 9.90889Z" fill="black"/>
</svg>
